<svg width="17" height="16" viewBox="0 0 17 16" fill="none" xmlns="http://www.w3.org/2000/svg">
<path d="M16 5.5C16.2761 5.5 16.5 5.27614 16.5 5V3C16.5 1.61929 15.3807 0.5 14 0.5H3C1.61929 0.5 0.5 1.61929 0.5 3V5C0.5 5.27614 0.723858 5.5 1 5.5H16Z" fill="#3D82EB" stroke="#3D82EB" stroke-linecap="round" stroke-linejoin="round"/>
<path d="M0.5 5.5H16.5V13C16.5 14.3807 15.3807 15.5 14 15.5H3C1.61929 15.5 0.5 14.3807 0.5 13V5.5Z" stroke="#3D82EB"/>
<path d="M8.12498 13H4.71385V12.3232L6.32371 10.6074C6.54474 10.3659 6.70766 10.1551 6.81248 9.9751C6.91958 9.79508 6.97312 9.62419 6.97312 9.4624C6.97312 9.24137 6.9173 9.0682 6.80564 8.94287C6.69399 8.81527 6.53449 8.75146 6.32713 8.75146C6.10382 8.75146 5.92723 8.82894 5.79734 8.98389C5.66974 9.13656 5.60594 9.33822 5.60594 9.58887H4.61473C4.61473 9.28581 4.6865 9.00895 4.83006 8.7583C4.97589 8.50765 5.18097 8.31169 5.44529 8.17041C5.70962 8.02686 6.00926 7.95508 6.34422 7.95508C6.85691 7.95508 7.25454 8.07812 7.53709 8.32422C7.82192 8.57031 7.96434 8.91781 7.96434 9.3667C7.96434 9.61279 7.90053 9.86344 7.77293 10.1187C7.64533 10.3739 7.42658 10.6712 7.11668 11.0107L5.98533 12.2036H8.12498V13ZM9.94826 10.0742H10.4746C10.7253 10.0742 10.911 10.0116 11.0318 9.88623C11.1525 9.7609 11.2129 9.59456 11.2129 9.38721C11.2129 9.18669 11.1525 9.0306 11.0318 8.91895C10.9133 8.80729 10.7492 8.75146 10.5396 8.75146C10.3504 8.75146 10.1921 8.80387 10.0645 8.90869C9.93687 9.01123 9.87307 9.14567 9.87307 9.31201H8.88527C8.88527 9.05225 8.95477 8.81982 9.09377 8.61475C9.23505 8.40739 9.43101 8.24561 9.68166 8.12939C9.93459 8.01318 10.2126 7.95508 10.5156 7.95508C11.042 7.95508 11.4544 8.08154 11.7529 8.33447C12.0515 8.58512 12.2007 8.93148 12.2007 9.37354C12.2007 9.6014 12.1312 9.81104 11.9922 10.0024C11.8532 10.1938 11.6709 10.3408 11.4453 10.4434C11.7256 10.5436 11.9341 10.694 12.0708 10.8945C12.2098 11.0951 12.2793 11.332 12.2793 11.6055C12.2793 12.0475 12.1175 12.4019 11.794 12.6685C11.4727 12.9351 11.0466 13.0684 10.5156 13.0684C10.0189 13.0684 9.61216 12.9373 9.29543 12.6753C8.98098 12.4132 8.82375 12.0669 8.82375 11.6362H9.81154C9.81154 11.8231 9.88104 11.9757 10.02 12.0942C10.1613 12.2127 10.3345 12.272 10.5396 12.272C10.7743 12.272 10.9577 12.2104 11.0899 12.0874C11.2243 11.9621 11.2915 11.7969 11.2915 11.5918C11.2915 11.0951 11.0181 10.8467 10.4712 10.8467H9.94826V10.0742Z" fill="#3D82EB"/>
<path d="M4.36807 1.44531L5.28115 4.02344L6.18936 1.44531H7.15127V5H6.41641V4.02832L6.48965 2.35107L5.53018 5H5.02725L4.07021 2.35352L4.14346 4.02832V5H3.41104V1.44531H4.36807ZM9.9917 4.26758H8.70752L8.46338 5H7.68457L9.00781 1.44531H9.68652L11.0171 5H10.2383L9.9917 4.26758ZM8.90527 3.67432H9.79395L9.34717 2.34375L8.90527 3.67432ZM12.3585 3.04688L13.0982 1.44531H13.899L12.732 3.71094V5H11.9874V3.71094L10.8204 1.44531H11.6236L12.3585 3.04688Z" fill="white"/>
</svg>
